<svg aria-hidden="true" style="position: absolute; width: 0; height: 0; overflow: hidden;" version="1.1" xmlns="http://www.w3.org/2000/svg" xmlns:xlink="http://www.w3.org/1999/xlink">
<defs>
<symbol id="icon-like" viewBox="0 0 32 32">
<path d="M29.415 4.545c-1.676-1.676-3.894-2.591-6.262-2.591s-4.593 0.923-6.268 2.598l-0.875 0.875-0.889-0.889c-1.676-1.676-3.908-2.605-6.275-2.605-2.361 0-4.586 0.923-6.255 2.591-1.676 1.676-2.598 3.901-2.591 6.268 0 2.368 0.929 4.586 2.605 6.262l12.74 12.74c0.176 0.176 0.414 0.271 0.644 0.271s0.468-0.088 0.644-0.265l12.767-12.72c1.676-1.676 2.598-3.901 2.598-6.268 0.007-2.368-0.909-4.593-2.585-6.268zM28.113 15.786l-12.123 12.075-12.096-12.096c-1.33-1.33-2.062-3.094-2.062-4.973s0.726-3.643 2.056-4.966c1.323-1.323 3.087-2.056 4.959-2.056 1.879 0 3.65 0.733 4.979 2.062l1.533 1.533c0.36 0.36 0.936 0.36 1.296 0l1.52-1.52c1.33-1.33 3.1-2.062 4.973-2.062s3.636 0.733 4.966 2.056c1.33 1.33 2.056 3.094 2.056 4.973 0.007 1.879-0.726 3.643-2.056 4.973z"></path>
</symbol>
<symbol id="icon-cart" viewBox="0 0 29 32">
<path d="M8.32 21.12h16.8c1.92 0 3.36-1.6 3.36-3.68v-7.52q0 0 0 0t0 0q0-0.16 0-0.16t0 0 0 0 0 0q0-0.16 0-0.16t0 0q-0.16 0-0.16 0 0-0.16 0-0.16t0 0 0 0 0 0 0 0l-0.16-0.16q0 0 0 0t0 0 0 0 0 0l-0.16-0.16q0 0 0 0t-0.16 0q0 0 0 0t0 0 0 0l-21.28-3.040v-3.2q0 0 0 0t0-0.16q0 0 0 0t0 0 0 0v-0.16q0 0 0 0t0 0-0.16 0q0-0.16 0-0.16t0 0 0 0 0 0v-0.16h-0.16q0 0 0 0t0 0 0 0q0-0.16-0.16-0.16 0 0 0 0t0 0l-4.64-2.080c-0.48-0.16-0.96 0-1.12 0.48s0 0.96 0.48 1.28l4.16 1.76v19.52c0 1.76 1.28 3.36 2.88 3.52q-0.48 0.8-0.48 1.92c0 1.92 1.6 3.52 3.52 3.52 1.76 0 3.36-1.6 3.36-3.52q0-1.12-0.48-1.92h7.52q-0.48 0.8-0.48 1.92c0 1.92 1.6 3.52 3.52 3.52 1.76 0 3.36-1.6 3.36-3.52 0-2.080-1.6-3.68-3.36-3.68h-16c-0.96 0-1.76-0.8-1.76-1.76v-2.4q0.8 0.48 1.76 0.48z"></path>
</symbol>
<symbol id="icon-scale" viewBox="0 0 35 32">
<path d="M1.6 22.4h3.2v9.6h-3.2zM1.6 28.8h9.6v3.2h-9.6zM11.2 0v3.2h-9.6v-3.2zM4.8 0v9.6h-3.2v-9.6zM33.6 9.6h-3.2v-9.6h3.2zM33.6 3.2h-9.6v-3.2h9.6zM24 32v-3.2h9.6v3.2zM30.4 32v-9.6h3.2v9.6z"></path>
</symbol>
<symbol id="icon-search" viewBox="0 0 37 32">
<path d="M36.8 30.4c-1.333 1.6-3.467 2.133-5.333 0.8l-6.667-4.8c-1.067-0.8-1.6-2.133-1.6-3.2-1.867 2.133-4.533 3.467-7.2 4-3.733 0.8-7.2 0-10.133-2.133s-5.067-5.333-5.6-8.8c-0.8-3.733 0-7.467 2.133-10.4 4.267-6.133 12.533-7.733 18.667-3.467 5.6 4 7.467 11.467 4.533 17.333 1.067-0.533 2.4-0.267 3.467 0.533l6.667 4.8c1.6 1.333 2.133 3.467 1.067 5.333zM22.667 12c-0.267-2.4-1.867-4.8-3.733-6.133-4.267-2.933-10.133-1.867-13.067 2.4s-1.867 10.4 2.4 13.333c4.267 2.933 9.867 1.867 13.067-2.4 1.333-2.133 1.867-4.533 1.333-7.2z"></path>
</symbol>
</defs>
</svg>
